<?xml version="1.0" encoding="UTF-8" standalone="no"?>
<!-- Created with Inkscape (http://www.inkscape.org/) -->

<svg
   width="210mm"
   height="70mm"
   viewBox="0 0 210 70"
   version="1.1"
   id="svg5"
   inkscape:version="1.1 (c68e22c387, 2021-05-23)"
   sodipodi:docname="BB LOGOO 2.svg"
   xmlns:inkscape="http://www.inkscape.org/namespaces/inkscape"
   xmlns:sodipodi="http://sodipodi.sourceforge.net/DTD/sodipodi-0.dtd"
   xmlns="http://www.w3.org/2000/svg"
   xmlns:svg="http://www.w3.org/2000/svg">
  <sodipodi:namedview
     id="namedview7"
     pagecolor="#ffffff"
     bordercolor="#eeee00"
     borderopacity="1"
     inkscape:pageshadow="0"
     inkscape:pageopacity="0"
     inkscape:pagecheckerboard="0"
     inkscape:document-units="mm"
     showgrid="false"
     showguides="true"
     inkscape:guide-bbox="true"
     inkscape:zoom="0.7500982"
     inkscape:cx="453.27398"
     inkscape:cy="149.31378"
     inkscape:window-width="1920"
     inkscape:window-height="1046"
     inkscape:window-x="-11"
     inkscape:window-y="-11"
     inkscape:window-maximized="1"
     inkscape:current-layer="layer1">
    <sodipodi:guide
       position="526.32309,132.36428"
       orientation="0,-1"
       id="guide5231" />
    <sodipodi:guide
       position="264.19596,99.629453"
       orientation="0,-1"
       id="guide5233" />
    <sodipodi:guide
       position="850.7886,132.36428"
       orientation="1,0"
       id="guide5235" />
  </sodipodi:namedview>
  <defs
     id="defs2" />
  <g
     inkscape:label="Layer 1"
     inkscape:groupmode="layer"
     id="layer1">
    <g
       id="g15766">
      <path
         style="fill:#891516;fill-opacity:1;stroke-width:0.102436"
         d="m 4.6569055,59.146696 c -0.030816,-0.18311 -0.067481,-1.71582 -0.081469,-3.40602 l -0.025418,-3.07309 3.0218755,-0.0596 c 1.6620334,-0.0328 3.031272,-0.0674 3.042756,-0.0768 0.01147,-0.009 0.03453,-3.56504 0.05122,-7.901242 0.02696,-7.00862 0.04823,-7.901899 0.191516,-8.045127 0.202743,-0.202669 1.540213,-0.701516 3.533628,-1.317968 2.364334,-0.731151 2.704357,-0.786116 5.268384,-0.851602 3.635224,-0.09285 5.012736,0.132958 8.18971,1.342464 2.162012,0.823103 3.507327,1.210828 5.19125,1.496136 2.446426,0.414502 6.203757,0.167485 8.117563,-0.533672 0.317095,-0.116174 1.751999,-0.777375 3.188671,-1.469335 2.763782,-1.331156 3.295384,-1.535471 3.587845,-1.378949 0.280789,0.150271 1.028248,1.023184 1.585843,1.852006 1.59452,2.370131 2.344488,4.843933 2.341776,7.724429 -0.0049,5.196192 -2.444974,9.55229 -7.095933,12.66785 -2.335307,1.56436 -4.097522,2.225 -7.743741,2.90307 -2.074655,0.38581 -4.928257,0.4518 -19.739988,0.45645 l -12.5694353,0.004 z m 30.0094225,-4.68735 c 2.160414,-0.14446 4.3886,-0.71544 6.065501,-1.5543 1.039123,-0.51981 2.785569,-1.81847 3.514185,-2.61315 1.235387,-1.34739 2.139775,-2.9016 2.52502,-4.339293 0.224565,-0.838061 0.256837,-3.824393 0.05141,-4.757901 -0.167457,-0.760987 -0.858588,-2.196726 -1.268874,-2.63594 -0.29143,-0.311976 -0.313284,-0.318711 -0.445879,-0.137383 -0.07668,0.104876 -0.285144,0.633487 -0.463243,1.17469 -0.620186,1.884616 -1.518725,3.374896 -2.901087,4.811632 -2.430193,2.525779 -5.805134,4.226263 -9.91339,4.994925 -1.166184,0.2182 -4.380616,0.30053 -5.724006,0.14661 -3.2844,-0.3763 -6.413243,-1.523818 -9.140078,-3.352164 -0.720832,-0.483318 -1.3357,-0.853665 -1.366372,-0.822993 -0.205361,0.205362 -0.285953,8.500477 -0.08749,9.005597 0.05633,0.14339 0.240835,0.18313 1.006973,0.21695 1.608687,0.071 16.744852,-0.0435 18.147333,-0.13728 z m -3.943805,-9.778355 c 1.381783,-0.211564 2.389665,-0.497739 3.658799,-1.038875 1.08904,-0.464349 2.180083,-1.052549 2.180083,-1.175323 0,-0.06671 -1.806326,-0.196509 -2.734676,-0.196509 -0.965221,0 -3.7442,-0.685617 -6.279737,-1.549307 -3.352525,-1.141984 -3.911113,-1.30624 -5.019388,-1.475975 -1.848224,-0.283061 -4.641575,-0.103677 -5.070898,0.325643 -0.237997,0.237997 0.0049,0.591114 1.158979,1.685305 1.910374,1.811147 4.056136,2.807532 7.241105,3.362396 1.388233,0.24185 3.516343,0.26925 4.865733,0.06265 z m 45.635452,14.689035 c -7.991263,-0.0716 -8.077112,-0.0764 -10.294867,-0.56648 -4.125854,-0.91179 -7.030608,-2.49062 -9.624138,-5.23104 -2.574735,-2.72056 -3.934837,-5.935003 -4.067062,-9.61202 -0.08765,-2.437577 0.307252,-4.414816 1.288932,-6.453498 0.681481,-1.415248 2.084483,-3.322704 2.677345,-3.639995 0.278139,-0.148854 0.835146,0.07048 3.786018,1.49083 2.759499,1.328238 3.445906,1.581033 5.016978,1.847687 3.334947,0.566037 6.88097,0.240359 9.720687,-0.892772 1.926371,-0.76868 4.163278,-1.492243 5.19268,-1.679662 1.22587,-0.223189 4.996178,-0.317117 6.344776,-0.15807 1.246702,0.147032 2.123538,0.367266 4.367817,1.097067 2.119721,0.689299 2.591026,0.886345 2.705298,1.131051 0.0486,0.104086 0.11288,3.71562 0.142835,8.025637 l 0.05446,7.836395 2.938642,0.0271 c 2.937078,0.0272 2.938688,0.0273 3.021706,0.25609 0.09683,0.26686 0.08267,4.54806 -0.01915,5.7861 l -0.0695,0.8451 -7.750368,-0.0204 c -4.262703,-0.0112 -11.2076,-0.0513 -15.433102,-0.0892 z m 12.354912,-4.91252 c 0.135798,-0.19915 0.06769,-8.871221 -0.07076,-9.009673 -0.06372,-0.06372 -0.19264,-0.03608 -0.361696,0.07754 -0.144481,0.09709 -0.658978,0.442533 -1.143327,0.767642 -1.009846,0.677837 -3.451227,1.883321 -4.58172,2.262325 -2.134454,0.715576 -3.703158,0.992596 -6.011742,1.061596 -4.304234,0.12865 -8.093915,-0.843837 -11.175502,-2.867792 -2.99614,-1.967833 -4.625805,-3.989436 -5.798785,-7.193421 -0.206261,-0.563402 -0.417446,-1.092302 -0.469294,-1.175336 -0.161454,-0.258547 -0.585616,0.256558 -1.136537,1.380209 -0.413316,0.842999 -0.522941,1.187591 -0.619157,1.946294 -0.155924,1.229513 -0.06336,3.712145 0.166142,4.455986 1.020983,3.30912 4.149508,6.3081 7.800969,7.47794 2.868693,0.91906 4.420953,1.01247 16.353005,0.98413 5.990505,-0.0142 6.959637,-0.0373 7.048407,-0.16744 z m -9.803128,-9.930119 c 3.029746,-0.602136 5.091301,-1.649456 7.000415,-3.556376 1.363782,-1.362214 1.316603,-1.522826 -0.519593,-1.768882 -1.16638,-0.156296 -2.930307,-0.131553 -3.838275,0.05385 -0.434258,0.08867 -2.241601,0.637342 -4.016313,1.219269 -3.328848,1.091527 -6.111695,1.795039 -7.100538,1.795039 -1.042104,0 -2.733363,0.133726 -2.733363,0.216124 0,0.240673 2.502378,1.394106 3.876539,1.786835 1.524262,0.435624 2.564047,0.555111 4.472034,0.513893 1.24611,-0.02693 2.059318,-0.100798 2.859094,-0.259749 z M 34.461455,33.082969 c -2.237829,-0.115538 -4.044321,-0.565777 -7.221773,-1.799904 -1.231711,-0.478401 -2.693383,-0.887409 -3.995021,-1.117896 -1.174172,-0.207917 -4.610152,-0.174385 -5.890096,0.05748 -1.052806,0.190718 -3.316143,0.830641 -4.878198,1.379235 -0.485743,0.170593 -1.06195,0.324428 -1.280455,0.341851 l -0.397282,0.03168 -0.06486,-0.665838 C 10.6981,30.943373 10.66353,27.105847 10.65694,22.781746 L 10.64495,14.919748 H 7.6373957 4.6298326 L 4.5550766,11.75153 c -0.041112,-1.74252 -0.045855,-3.25926 -0.01054,-3.370533 0.057025,-0.179671 0.192791,-0.210214 1.212855,-0.27285 1.920985,-0.11796 28.0417564,0.0063 29.2674494,0.139202 4.280214,0.464184 8.188284,2.188477 10.48986,4.628266 1.405576,1.489999 2.541968,3.692298 2.827498,5.47966 0.142279,0.890619 0.13885,3.9913 -0.0055,5.01548 -0.312886,2.219291 -1.595484,4.541533 -3.514917,6.364027 -2.169111,2.059557 -4.380677,3.051137 -7.376,3.30711 -1.251011,0.10691 -1.61274,0.11189 -2.98431,0.04108 z m 4.489924,-5.031747 c 0.159513,-0.06782 0.274755,-0.166926 0.256092,-0.220236 -0.09393,-0.268312 -1.317233,-1.603328 -1.914886,-2.089759 -1.627923,-1.324974 -4.316957,-2.567087 -6.122504,-2.828095 -0.913456,-0.132048 -5.413437,-0.131663 -6.328079,6.43e-4 -0.926544,0.133924 -2.271717,0.59023 -3.571752,1.211595 -1.117665,0.534202 -1.497668,0.77572 -1.389965,0.883424 0.03681,0.03681 0.785117,0.107568 1.662908,0.157244 1.68222,0.0952 2.07205,0.148755 4.21116,0.578473 0.972933,0.195448 1.980173,0.510275 3.738933,1.168655 3.629811,1.358794 3.459823,1.32533 6.555936,1.290686 1.745292,-0.01954 2.708376,-0.07014 2.902157,-0.15253 z m 4.149132,-4.146825 c 0.569681,-1.52261 0.681857,-2.046963 0.672969,-3.145771 -0.0071,-0.882964 -0.05966,-1.231512 -0.293238,-1.946294 -0.413198,-1.264417 -0.803247,-1.972434 -1.434239,-2.603427 -1.346449,-1.346448 -3.017933,-2.15778 -6.150436,-2.985403 l -1.331675,-0.351833 -9.552203,-3.08e-4 -9.5522,-3.22e-4 v 4.466948 c 0,3.532334 0.0268,4.456327 0.128045,4.416198 0.07042,-0.02793 0.643132,-0.395807 1.272679,-0.81754 1.353772,-0.906891 2.655085,-1.55934 4.124867,-2.068113 3.844191,-1.330688 9.077067,-1.410913 12.983584,-0.199048 3.211776,0.996346 5.364213,2.316998 7.814978,4.794974 0.534118,0.540046 1.003293,0.981905 1.042612,0.981905 0.03932,0 0.162736,-0.243875 0.274257,-0.541943 z m 23.592516,9.136152 c -4.554277,-0.32759 -8.495953,-3.29192 -10.264642,-7.719506 -0.397941,-0.996172 -0.566692,-1.947711 -0.654701,-3.691705 -0.08816,-1.746877 0.07437,-3.534037 0.413156,-4.543278 1.006652,-2.998765 3.348049,-5.541286 6.435201,-6.987975 2.260879,-1.059482 5.368784,-1.800707 8.153144,-1.944494 1.928158,-0.09957 27.91726,-0.128147 28.50295,-0.03133 l 0.384136,0.06349 v 3.365456 3.365453 l -2.996268,0.02715 -2.996268,0.02715 -0.06485,0.665838 c -0.03567,0.366209 -0.07095,4.146115 -0.07839,8.399789 -0.0075,4.253673 -0.05201,7.794628 -0.09904,7.868787 -0.10484,0.165333 -0.849542,-0.01019 -2.353608,-0.554716 -3.057351,-1.106887 -6.097669,-1.537469 -9.030639,-1.278964 -1.815991,0.160059 -2.8319,0.390225 -4.563786,1.033981 -2.965815,1.10242 -3.612942,1.316336 -4.758627,1.573026 -1.121,0.251159 -3.41515,0.490705 -4.404073,0.459853 -0.253531,-0.0079 -0.98419,-0.05201 -1.623685,-0.09801 z m 3.480556,-4.804572 c 1.142755,-0.130949 2.231663,-0.450525 4.742344,-1.391793 2.816765,-1.056022 4.903275,-1.506602 7.779378,-1.679945 0.896853,-0.05406 1.658582,-0.126222 1.692734,-0.160374 0.20061,-0.20061 -2.215939,-1.333075 -4.086262,-1.914941 -0.578559,-0.179992 -1.030703,-0.213418 -3.449418,-0.255015 -1.795135,-0.03088 -3.098605,-0.0059 -3.670731,0.07019 -1.696786,0.225799 -4.256482,1.343438 -5.853534,2.555824 -0.806582,0.612309 -2.28935,2.150457 -2.28935,2.374855 0,0.08683 0.422099,0.2279 1.178019,0.393699 0.569562,0.12492 2.893677,0.129326 3.95682,0.0075 z m -8.059605,-4.453599 c 1.144181,-1.514744 4.167204,-3.633047 6.51004,-4.561745 0.309872,-0.122829 1.224549,-0.425271 2.032616,-0.672088 1.954394,-0.596956 2.945069,-0.693166 6.482065,-0.629508 3.160813,0.05689 3.425745,0.09725 5.826426,0.887746 1.7716,0.583347 2.805003,1.08536 4.463829,2.168471 0.680396,0.444255 1.268614,0.807739 1.307153,0.807739 0.03854,0 0.05806,-1.993672 0.04338,-4.430378 l -0.0267,-4.43038 -9.519519,-0.02616 -9.51952,-0.02616 -1.389964,0.365342 c -1.807456,0.475072 -2.73991,0.797848 -3.746005,1.296705 -2.096491,1.039515 -3.19181,2.228784 -3.795903,4.121497 -0.479066,1.500985 -0.437607,2.947932 0.133697,4.666046 0.313107,0.941625 0.406739,1.1268 0.569767,1.1268 0.06991,0 0.352796,-0.298785 0.628637,-0.663962 z"
         id="path854"
         sodipodi:nodetypes="sscsssssssssssssssscssssssssssssssssssssssssssssssssssssssssscssscssssssssssssssssssssssssssssssssscsscccscsscssssssccsscssssssccscccscccssssssssscsssssscccccsssssssscsssssscssssssssssssscccssssss" />
      <g
         aria-label="BEYOND"
         id="text1605"
         style="font-size:24.9973px;line-height:1.25;fill:#891516;stroke-width:0.624935">
        <path
           d="m 114.69875,22.332286 q 0,1.354834 -0.51264,2.39232 -0.51264,1.037485 -1.37925,1.7088 -1.02528,0.805577 -2.25805,1.147337 -1.22058,0.34176 -3.11246,0.34176 h -6.44462 V 9.7481966 h 5.38272 q 1.98953,0 2.9782,0.1464686 0.98866,0.1464688 1.89188,0.6102858 1.00087,0.524845 1.45248,1.354834 0.45161,0.817783 0.45161,1.96512 0,1.293805 -0.65911,2.209234 -0.6591,0.903222 -1.75762,1.452479 v 0.09765 q 1.84306,0.378377 2.90496,1.62336 1.0619,1.232777 1.0619,3.124662 z m -4.0645,-8.190033 q 0,-0.659108 -0.21971,-1.11072 -0.2197,-0.451611 -0.70793,-0.732342 -0.57367,-0.329555 -1.39145,-0.402789 -0.81778,-0.08544 -2.02615,-0.08544 h -2.88055 v 5.248456 h 3.12467 q 1.13513,0 1.80644,-0.109851 0.67132,-0.122057 1.24498,-0.488229 0.57367,-0.366171 0.80558,-0.939839 0.24412,-0.585875 0.24412,-1.379246 z m 1.55012,8.287679 q 0,-1.098514 -0.32955,-1.745417 -0.32956,-0.646903 -1.19616,-1.098514 -0.58588,-0.305143 -1.42807,-0.390583 -0.82999,-0.09765 -2.02615,-0.09765 h -3.79598 v 6.761965 h 3.1979 q 1.58674,0 2.59982,-0.158674 1.01307,-0.17088 1.65997,-0.610286 0.68352,-0.476023 1.00087,-1.086308 0.31735,-0.610286 0.31735,-1.574537 z"
           id="path15768" />
        <path
           d="M 130.10236,27.922503 H 118.12855 V 9.7481966 h 11.97381 v 2.1482054 h -9.55708 v 4.979931 h 9.55708 v 2.148205 h -9.55708 v 6.749759 h 9.55708 z"
           id="path15770" />
        <path
           d="m 146.79977,9.7481966 -6.39579,10.2039754 v 7.970331 h -2.41673 V 20.208492 L 131.56704,9.7481966 h 2.67305 l 4.96773,8.1290044 5.01655,-8.1290044 z"
           id="path15772" />
        <path
           d="m 162.61837,11.835373 q 1.11072,1.220572 1.6966,2.9904 0.59808,1.769828 0.59808,4.015679 0,2.245852 -0.61029,4.027886 -0.59808,1.769828 -1.68439,2.953782 -1.12292,1.232777 -2.66084,1.855268 -1.52572,0.622492 -3.49083,0.622492 -1.9163,0 -3.49084,-0.634697 -1.56233,-0.634697 -2.66084,-1.843063 -1.09852,-1.208366 -1.6966,-2.965988 -0.58587,-1.757623 -0.58587,-4.01568 0,-2.221439 0.58587,-3.979062 0.58588,-1.769828 1.7088,-3.027017 1.0741,-1.196159 2.66085,-1.830856 1.59895,-0.6346975 3.47863,-0.6346975 1.95291,0 3.50303,0.6469025 1.56234,0.634697 2.64864,1.818651 z m -0.2197,7.006079 q 0,-3.539656 -1.58674,-5.455953 -1.58674,-1.928503 -4.33303,-1.928503 -2.7707,0 -4.35744,1.928503 -1.57454,1.916297 -1.57454,5.455953 0,3.576274 1.61116,5.480365 1.61115,1.891886 4.32082,1.891886 2.70967,0 4.30862,-1.891886 1.61115,-1.904091 1.61115,-5.480365 z"
           id="path15774" />
        <path
           d="m 182.61133,27.922503 h -2.9904 l -8.61723,-16.25801 v 16.25801 h -2.25806 V 9.7481966 h 3.74715 l 7.86048,14.8421464 V 9.7481966 h 2.25806 z"
           id="path15776" />
        <path
           d="m 202.79958,18.853658 q 0,2.47776 -1.08631,4.491702 -1.0741,2.013943 -2.86834,3.124663 -1.24498,0.76896 -2.7829,1.11072 -1.52571,0.34176 -4.02789,0.34176 H 187.4448 V 9.7481966 h 4.54052 q 2.66085,0 4.22318,0.3905824 1.57454,0.378377 2.66084,1.049692 1.85527,1.159542 2.89276,3.088045 1.03748,1.928503 1.03748,4.577142 z m -2.52658,-0.03662 q 0,-2.136 -0.74455,-3.600685 -0.74455,-1.464686 -2.22144,-2.30688 -1.0741,-0.610285 -2.28247,-0.842194 -1.20836,-0.244114 -2.89275,-0.244114 h -2.27026 v 14.024363 h 2.27026 q 1.74542,0 3.03922,-0.25632 1.30601,-0.25632 2.39232,-0.952045 1.35484,-0.866606 2.02615,-2.282468 0.68352,-1.415863 0.68352,-3.539657 z"
           id="path15778" />
      </g>
      <g
         aria-label="BUNA"
         id="text3999"
         style="font-size:32.7744px;line-height:1.25;fill:#891516;stroke-width:0.819365">
        <path
           d="m 122.57983,51.187637 q 0,1.728337 -0.70413,3.088603 -0.68814,1.360265 -1.90437,2.25644 -1.40828,1.056207 -3.10461,1.504294 -1.68033,0.448088 -4.27284,0.448088 H 102.19185 V 34.656409 h 9.24981 q 2.88056,0 4.20882,0.192038 1.34426,0.192037 2.65652,0.848165 1.36027,0.688135 2.01639,1.856363 0.67214,1.152225 0.67214,2.640515 0,1.728338 -0.91218,3.056597 -0.91218,1.312256 -2.57651,2.0484 v 0.128025 q 2.33646,0.464091 3.69673,1.920375 1.37626,1.456284 1.37626,3.84075 z m -7.87353,-9.793912 q 0,-0.592116 -0.30406,-1.184231 -0.28806,-0.592116 -1.04021,-0.880172 -0.67213,-0.25605 -1.68032,-0.272053 -0.9922,-0.03201 -2.80055,-0.03201 h -0.57611 v 5.040985 h 0.96019 q 1.45628,0 2.48048,-0.04801 1.0242,-0.04801 1.61631,-0.320062 0.83217,-0.368072 1.08822,-0.944185 0.25605,-0.592115 0.25605,-1.360265 z m 1.50429,9.697893 q 0,-1.136222 -0.44809,-1.74434 -0.43208,-0.624122 -1.48829,-0.928182 -0.72014,-0.20804 -1.98438,-0.224043 -1.26425,-0.016 -2.64052,-0.016 h -1.34426 v 5.937159 h 0.44809 q 2.5925,0 3.71272,-0.016 1.12022,-0.016 2.0644,-0.416082 0.96019,-0.400078 1.31226,-1.056206 0.36807,-0.672131 0.36807,-1.5363 z"
           style="font-weight:bold;-inkscape-font-specification:'sans-serif, Bold'"
           id="path15781" />
        <path
           d="m 148.0248,49.859378 q 0,4.416862 -2.68852,6.769321 -2.68853,2.35246 -7.92155,2.35246 -5.23302,0 -7.92155,-2.35246 -2.67252,-2.352459 -2.67252,-6.753318 V 34.656409 h 6.17721 v 14.866903 q 0,2.480484 1.0402,3.696722 1.0402,1.216237 3.37666,1.216237 2.30445,0 3.36066,-1.168228 1.07221,-1.168228 1.07221,-3.744731 V 34.656409 h 6.1772 z"
           style="font-weight:bold;-inkscape-font-specification:'sans-serif, Bold'"
           id="path15783" />
        <path
           d="M 175.43816,58.485062 H 169.517 L 159.40303,42.129868 v 16.355194 h -5.6331 V 34.656409 h 7.34543 l 8.6897,13.650666 V 34.656409 h 5.6331 z"
           style="font-weight:bold;-inkscape-font-specification:'sans-serif, Bold'"
           id="path15785" />
        <path
           d="m 203.53964,58.485062 h -6.35324 l -1.64832,-4.816941 h -8.83373 l -1.64832,4.816941 h -6.19321 l 8.80172,-23.828653 h 7.07338 z m -9.48986,-9.185794 -2.92857,-8.545668 -2.92857,8.545668 z"
           style="font-weight:bold;-inkscape-font-specification:'sans-serif, Bold'"
           id="path15787" />
      </g>
    </g>
  </g>
</svg>
